<?xml version="1.0" encoding="UTF-8" standalone="no"?>
<!-- Created with Inkscape (http://www.inkscape.org/) -->

<svg
   xmlns:dc="http://purl.org/dc/elements/1.1/"
   xmlns:cc="http://creativecommons.org/ns#"
   xmlns:rdf="http://www.w3.org/1999/02/22-rdf-syntax-ns#"
   xmlns:svg="http://www.w3.org/2000/svg"
   xmlns="http://www.w3.org/2000/svg"
   xmlns:sodipodi="http://sodipodi.sourceforge.net/DTD/sodipodi-0.dtd"
   xmlns:inkscape="http://www.inkscape.org/namespaces/inkscape"
   width="250.28223mm"
   height="175.28223mm"
   viewBox="0 0 886.82679 621.07876"
   id="svg4256"
   version="1.1"
   inkscape:version="0.92.3 (2405546, 2018-03-11)"
   sodipodi:docname="template.svg">
  <defs
     id="defs4258" />
  <sodipodi:namedview
     id="base"
     pagecolor="#ffffff"
     bordercolor="#666666"
     borderopacity="1.0"
     inkscape:pageopacity="0.0"
     inkscape:pageshadow="2"
     inkscape:zoom="0.97501215"
     inkscape:cx="382.85478"
     inkscape:cy="326.34478"
     inkscape:document-units="px"
     inkscape:current-layer="layer1"
     showgrid="false"
     inkscape:window-width="1920"
     inkscape:window-height="1003"
     inkscape:window-x="-9"
     inkscape:window-y="-9"
     inkscape:window-maximized="1"
     fit-margin-top="0"
     fit-margin-left="0"
     fit-margin-right="0"
     fit-margin-bottom="0" />
  <metadata
     id="metadata4261">
    <rdf:RDF>
      <cc:Work
         rdf:about="">
        <dc:format>image/svg+xml</dc:format>
        <dc:type
           rdf:resource="http://purl.org/dc/dcmitype/StillImage" />
        <dc:title></dc:title>
      </cc:Work>
    </rdf:RDF>
  </metadata>
  <g
     inkscape:label="Layer 1"
     inkscape:groupmode="layer"
     id="layer1"
     transform="translate(-126.2652,-110.10548)">
    <path
       style="color:#000000;clip-rule:nonzero;display:inline;overflow:visible;visibility:visible;opacity:1;isolation:auto;mix-blend-mode:normal;color-interpolation:sRGB;color-interpolation-filters:linearRGB;solid-color:#000000;solid-opacity:1;fill:none;fill-opacity:1;fill-rule:nonzero;stroke:#ff0000;stroke-width:0.51995105;stroke-linecap:butt;stroke-linejoin:miter;stroke-miterlimit:4;stroke-dasharray:none;stroke-dashoffset:0;stroke-opacity:1;color-rendering:auto;image-rendering:auto;shape-rendering:auto;text-rendering:auto;enable-background:accumulate"
       d="m 235.578,145.80452 c -0.9827,0 -1.77344,0.1477 -1.77344,0.33203 l 0,0.50195 c -0.29384,0.0542 -0.48046,0.11204 -0.48046,0.17578 l 0,23.7832 c 0,0.0637 0.18662,0.12156 0.48046,0.17578 l 0,0.5 c 0,0.18433 0.79074,0.33399 1.77344,0.33399 l 69.38086,0 c 0.98271,0 1.77344,-0.14966 1.77344,-0.33399 l 0,-0.24804 594.24414,0 c 2.80089,0 5.05664,-0.19113 5.05664,-0.42774 l 0,-23.7832 c 0,-0.23661 -2.25575,-0.42773 -5.05664,-0.42773 l -594.24414,0 0,-0.25 c 0,-0.18433 -0.79073,-0.33203 -1.77344,-0.33203 l -69.38086,0 z"
       id="rect4804-8"
       inkscape:connector-curvature="0" />
    <path
       style="color:#000000;clip-rule:nonzero;display:inline;overflow:visible;visibility:visible;opacity:1;isolation:auto;mix-blend-mode:normal;color-interpolation:sRGB;color-interpolation-filters:linearRGB;solid-color:#000000;solid-opacity:1;fill:none;fill-opacity:1;fill-rule:nonzero;stroke:#ff0000;stroke-width:0.51995105;stroke-linecap:butt;stroke-linejoin:miter;stroke-miterlimit:4;stroke-dasharray:none;stroke-dashoffset:0;stroke-opacity:1;color-rendering:auto;image-rendering:auto;shape-rendering:auto;text-rendering:auto;enable-background:accumulate"
       d="m 235.57799,332.17475 c -0.9827,0 -1.77344,0.1477 -1.77344,0.33203 l 0,0.50195 c -0.29384,0.0542 -0.48046,0.11204 -0.48046,0.17578 l 0,23.7832 c 0,0.0637 0.18662,0.12156 0.48046,0.17578 l 0,0.5 c 0,0.18433 0.79074,0.33399 1.77344,0.33399 l 69.38086,0 c 0.98271,0 1.77344,-0.14966 1.77344,-0.33399 l 0,-0.24804 594.2441,0 c 2.8009,0 5.0567,-0.19113 5.0567,-0.42774 l 0,-23.7832 c 0,-0.23661 -2.2558,-0.42773 -5.0567,-0.42773 l -594.2441,0 0,-0.25 c 0,-0.18433 -0.79073,-0.33203 -1.77344,-0.33203 l -69.38086,0 z"
       id="rect4804-8-7"
       inkscape:connector-curvature="0" />
    <path
       style="color:#000000;clip-rule:nonzero;display:inline;overflow:visible;visibility:visible;opacity:1;isolation:auto;mix-blend-mode:normal;color-interpolation:sRGB;color-interpolation-filters:linearRGB;solid-color:#000000;solid-opacity:1;fill:none;fill-opacity:1;fill-rule:nonzero;stroke:#ff0000;stroke-width:0.51995105;stroke-linecap:butt;stroke-linejoin:miter;stroke-miterlimit:4;stroke-dasharray:none;stroke-dashoffset:0;stroke-opacity:1;color-rendering:auto;image-rendering:auto;shape-rendering:auto;text-rendering:auto;enable-background:accumulate"
       d="m 235.578,192.39711 c -0.9827,0 -1.77344,0.1477 -1.77344,0.33203 l 0,0.50195 c -0.29384,0.0542 -0.48046,0.11204 -0.48046,0.17578 l 0,23.7832 c 0,0.0637 0.18662,0.12156 0.48046,0.17578 l 0,0.5 c 0,0.18433 0.79074,0.33399 1.77344,0.33399 l 69.38086,0 c 0.98271,0 1.77344,-0.14966 1.77344,-0.33399 l 0,-0.24804 594.24414,0 c 2.80089,0 5.05664,-0.19113 5.05664,-0.42774 l 0,-23.7832 c 0,-0.23661 -2.25575,-0.42773 -5.05664,-0.42773 l -594.24414,0 0,-0.25 c 0,-0.18433 -0.79073,-0.33203 -1.77344,-0.33203 l -69.38086,0 z"
       id="rect4804-8-2"
       inkscape:connector-curvature="0" />
    <path
       style="color:#000000;clip-rule:nonzero;display:inline;overflow:visible;visibility:visible;opacity:1;isolation:auto;mix-blend-mode:normal;color-interpolation:sRGB;color-interpolation-filters:linearRGB;solid-color:#000000;solid-opacity:1;fill:none;fill-opacity:1;fill-rule:nonzero;stroke:#ff0000;stroke-width:0.51995105;stroke-linecap:butt;stroke-linejoin:miter;stroke-miterlimit:4;stroke-dasharray:none;stroke-dashoffset:0;stroke-opacity:1;color-rendering:auto;image-rendering:auto;shape-rendering:auto;text-rendering:auto;enable-background:accumulate"
       d="m 235.578,238.98964 c -0.9827,0 -1.77344,0.1477 -1.77344,0.33203 l 0,0.50195 c -0.29384,0.0542 -0.48046,0.11204 -0.48046,0.17578 l 0,23.7832 c 0,0.0637 0.18662,0.12156 0.48046,0.17578 l 0,0.5 c 0,0.18433 0.79074,0.33399 1.77344,0.33399 l 69.38086,0 c 0.98271,0 1.77344,-0.14966 1.77344,-0.33399 l 0,-0.24804 594.24414,0 c 2.80089,0 5.05664,-0.19113 5.05664,-0.42774 l 0,-23.7832 c 0,-0.23661 -2.25575,-0.42773 -5.05664,-0.42773 l -594.24414,0 0,-0.25 c 0,-0.18433 -0.79073,-0.33203 -1.77344,-0.33203 l -69.38086,0 z"
       id="rect4804-8-8"
       inkscape:connector-curvature="0" />
    <path
       style="color:#000000;clip-rule:nonzero;display:inline;overflow:visible;visibility:visible;opacity:1;isolation:auto;mix-blend-mode:normal;color-interpolation:sRGB;color-interpolation-filters:linearRGB;solid-color:#000000;solid-opacity:1;fill:none;fill-opacity:1;fill-rule:nonzero;stroke:#ff0000;stroke-width:0.51995105;stroke-linecap:butt;stroke-linejoin:miter;stroke-miterlimit:4;stroke-dasharray:none;stroke-dashoffset:0;stroke-opacity:1;color-rendering:auto;image-rendering:auto;shape-rendering:auto;text-rendering:auto;enable-background:accumulate"
       d="m 235.578,285.5822 c -0.9827,0 -1.77344,0.1477 -1.77344,0.33203 l 0,0.50195 c -0.29384,0.0542 -0.48046,0.11204 -0.48046,0.17578 l 0,23.7832 c 0,0.0637 0.18662,0.12156 0.48046,0.17578 l 0,0.5 c 0,0.18433 0.79074,0.33399 1.77344,0.33399 l 69.38086,0 c 0.98271,0 1.77344,-0.14966 1.77344,-0.33399 l 0,-0.24804 594.24414,0 c 2.80089,0 5.05664,-0.19113 5.05664,-0.42774 l 0,-23.7832 c 0,-0.23661 -2.25575,-0.42773 -5.05664,-0.42773 l -594.24414,0 0,-0.25 c 0,-0.18433 -0.79073,-0.33203 -1.77344,-0.33203 l -69.38086,0 z"
       id="rect4804-8-25"
       inkscape:connector-curvature="0" />
    <path
       style="color:#000000;clip-rule:nonzero;display:inline;overflow:visible;visibility:visible;opacity:1;isolation:auto;mix-blend-mode:normal;color-interpolation:sRGB;color-interpolation-filters:linearRGB;solid-color:#000000;solid-opacity:1;fill:none;fill-opacity:1;fill-rule:nonzero;stroke:#ff0000;stroke-width:0.51995105;stroke-linecap:butt;stroke-linejoin:miter;stroke-miterlimit:4;stroke-dasharray:none;stroke-dashoffset:0;stroke-opacity:1;color-rendering:auto;image-rendering:auto;shape-rendering:auto;text-rendering:auto;enable-background:accumulate"
       d="m 235.578,378.76731 c -0.9827,0 -1.77344,0.1477 -1.77344,0.33203 l 0,0.50195 c -0.29384,0.0542 -0.48046,0.11204 -0.48046,0.17578 l 0,23.7832 c 0,0.0637 0.18662,0.12156 0.48046,0.17578 l 0,0.5 c 0,0.18433 0.79074,0.33399 1.77344,0.33399 l 69.38086,0 c 0.98271,0 1.77344,-0.14966 1.77344,-0.33399 l 0,-0.24804 594.24414,0 c 2.80089,0 5.05664,-0.19113 5.05664,-0.42774 l 0,-23.7832 c 0,-0.23661 -2.25575,-0.42773 -5.05664,-0.42773 l -594.24414,0 0,-0.25 c 0,-0.18433 -0.79073,-0.33203 -1.77344,-0.33203 l -69.38086,0 z"
       id="rect4804-8-4"
       inkscape:connector-curvature="0" />
    <path
       style="color:#000000;clip-rule:nonzero;display:inline;overflow:visible;visibility:visible;opacity:1;isolation:auto;mix-blend-mode:normal;color-interpolation:sRGB;color-interpolation-filters:linearRGB;solid-color:#000000;solid-opacity:1;fill:none;fill-opacity:1;fill-rule:nonzero;stroke:#ff0000;stroke-width:0.51995105;stroke-linecap:butt;stroke-linejoin:miter;stroke-miterlimit:4;stroke-dasharray:none;stroke-dashoffset:0;stroke-opacity:1;color-rendering:auto;image-rendering:auto;shape-rendering:auto;text-rendering:auto;enable-background:accumulate"
       d="m 235.578,425.35989 c -0.9827,0 -1.77344,0.1477 -1.77344,0.33203 l 0,0.50195 c -0.29384,0.0542 -0.48046,0.11204 -0.48046,0.17578 l 0,23.7832 c 0,0.0637 0.18662,0.12156 0.48046,0.17578 l 0,0.5 c 0,0.18433 0.79074,0.33399 1.77344,0.33399 l 69.38086,0 c 0.98271,0 1.77344,-0.14966 1.77344,-0.33399 l 0,-0.24804 594.24414,0 c 2.80089,0 5.05664,-0.19113 5.05664,-0.42774 l 0,-23.7832 c 0,-0.23661 -2.25575,-0.42773 -5.05664,-0.42773 l -594.24414,0 0,-0.25 c 0,-0.18433 -0.79073,-0.33203 -1.77344,-0.33203 l -69.38086,0 z"
       id="rect4804-8-79"
       inkscape:connector-curvature="0" />
    <path
       style="color:#000000;clip-rule:nonzero;display:inline;overflow:visible;visibility:visible;opacity:1;isolation:auto;mix-blend-mode:normal;color-interpolation:sRGB;color-interpolation-filters:linearRGB;solid-color:#000000;solid-opacity:1;fill:none;fill-opacity:1;fill-rule:nonzero;stroke:#ff0000;stroke-width:0.51995105;stroke-linecap:butt;stroke-linejoin:miter;stroke-miterlimit:4;stroke-dasharray:none;stroke-dashoffset:0;stroke-opacity:1;color-rendering:auto;image-rendering:auto;shape-rendering:auto;text-rendering:auto;enable-background:accumulate"
       d="m 235.578,471.95242 c -0.9827,0 -1.77344,0.1477 -1.77344,0.33203 l 0,0.50195 c -0.29384,0.0542 -0.48046,0.11204 -0.48046,0.17578 l 0,23.7832 c 0,0.0637 0.18662,0.12156 0.48046,0.17578 l 0,0.5 c 0,0.18433 0.79074,0.33399 1.77344,0.33399 l 69.38086,0 c 0.98271,0 1.77344,-0.14966 1.77344,-0.33399 l 0,-0.24804 594.24414,0 c 2.80089,0 5.05664,-0.19113 5.05664,-0.42774 l 0,-23.7832 c 0,-0.23661 -2.25575,-0.42773 -5.05664,-0.42773 l -594.24414,0 0,-0.25 c 0,-0.18433 -0.79073,-0.33203 -1.77344,-0.33203 l -69.38086,0 z"
       id="rect4804-8-5"
       inkscape:connector-curvature="0" />
    <path
       style="color:#000000;clip-rule:nonzero;display:inline;overflow:visible;visibility:visible;opacity:1;isolation:auto;mix-blend-mode:normal;color-interpolation:sRGB;color-interpolation-filters:linearRGB;solid-color:#000000;solid-opacity:1;fill:none;fill-opacity:1;fill-rule:nonzero;stroke:#ff0000;stroke-width:0.51995105;stroke-linecap:butt;stroke-linejoin:miter;stroke-miterlimit:4;stroke-dasharray:none;stroke-dashoffset:0;stroke-opacity:1;color-rendering:auto;image-rendering:auto;shape-rendering:auto;text-rendering:auto;enable-background:accumulate"
       d="m 235.578,611.7301 c -0.9827,0 -1.77344,0.1477 -1.77344,0.33203 l 0,0.50195 c -0.29384,0.0542 -0.48046,0.11204 -0.48046,0.17578 l 0,23.7832 c 0,0.0637 0.18662,0.12156 0.48046,0.17578 l 0,0.5 c 0,0.18433 0.79074,0.33399 1.77344,0.33399 l 69.38086,0 c 0.98271,0 1.77344,-0.14966 1.77344,-0.33399 l 0,-0.24804 594.24414,0 c 2.80089,0 5.05664,-0.19113 5.05664,-0.42774 l 0,-23.7832 c 0,-0.23661 -2.25575,-0.42773 -5.05664,-0.42773 l -594.24414,0 0,-0.25 c 0,-0.18433 -0.79073,-0.33203 -1.77344,-0.33203 l -69.38086,0 z"
       id="rect4804-8-9"
       inkscape:connector-curvature="0" />
    <path
       style="color:#000000;clip-rule:nonzero;display:inline;overflow:visible;visibility:visible;opacity:1;isolation:auto;mix-blend-mode:normal;color-interpolation:sRGB;color-interpolation-filters:linearRGB;solid-color:#000000;solid-opacity:1;fill:none;fill-opacity:1;fill-rule:nonzero;stroke:#ff0000;stroke-width:0.51995105;stroke-linecap:butt;stroke-linejoin:miter;stroke-miterlimit:4;stroke-dasharray:none;stroke-dashoffset:0;stroke-opacity:1;color-rendering:auto;image-rendering:auto;shape-rendering:auto;text-rendering:auto;enable-background:accumulate"
       d="m 235.578,565.13754 c -0.9827,0 -1.77344,0.1477 -1.77344,0.33203 l 0,0.50195 c -0.29384,0.0542 -0.48046,0.11204 -0.48046,0.17578 l 0,23.7832 c 0,0.0637 0.18662,0.12156 0.48046,0.17578 l 0,0.5 c 0,0.18433 0.79074,0.33399 1.77344,0.33399 l 69.38086,0 c 0.98271,0 1.77344,-0.14966 1.77344,-0.33399 l 0,-0.24804 594.24414,0 c 2.80089,0 5.05664,-0.19113 5.05664,-0.42774 l 0,-23.7832 c 0,-0.23661 -2.25575,-0.42773 -5.05664,-0.42773 l -594.24414,0 0,-0.25 c 0,-0.18433 -0.79073,-0.33203 -1.77344,-0.33203 l -69.38086,0 z"
       id="rect4804-8-50"
       inkscape:connector-curvature="0" />
    <path
       style="color:#000000;clip-rule:nonzero;display:inline;overflow:visible;visibility:visible;opacity:1;isolation:auto;mix-blend-mode:normal;color-interpolation:sRGB;color-interpolation-filters:linearRGB;solid-color:#000000;solid-opacity:1;fill:none;fill-opacity:1;fill-rule:nonzero;stroke:#ff0000;stroke-width:0.51995105;stroke-linecap:butt;stroke-linejoin:miter;stroke-miterlimit:4;stroke-dasharray:none;stroke-dashoffset:0;stroke-opacity:1;color-rendering:auto;image-rendering:auto;shape-rendering:auto;text-rendering:auto;enable-background:accumulate"
       d="m 235.578,518.54499 c -0.9827,0 -1.77344,0.1477 -1.77344,0.33203 l 0,0.50195 c -0.29384,0.0542 -0.48046,0.11204 -0.48046,0.17578 l 0,23.7832 c 0,0.0637 0.18662,0.12156 0.48046,0.17578 l 0,0.5 c 0,0.18433 0.79074,0.33399 1.77344,0.33399 l 69.38086,0 c 0.98271,0 1.77344,-0.14966 1.77344,-0.33399 l 0,-0.24804 594.24414,0 c 2.80089,0 5.05664,-0.19113 5.05664,-0.42774 l 0,-23.7832 c 0,-0.23661 -2.25575,-0.42773 -5.05664,-0.42773 l -594.24414,0 0,-0.25 c 0,-0.18433 -0.79073,-0.33203 -1.77344,-0.33203 l -69.38086,0 z"
       id="rect4804-8-1"
       inkscape:connector-curvature="0" />
    <path
       style="color:#000000;clip-rule:nonzero;display:inline;overflow:visible;visibility:visible;opacity:1;isolation:auto;mix-blend-mode:normal;color-interpolation:sRGB;color-interpolation-filters:linearRGB;solid-color:#000000;solid-opacity:1;fill:none;fill-opacity:1;fill-rule:nonzero;stroke:#ff0000;stroke-width:0.51995105;stroke-linecap:butt;stroke-linejoin:miter;stroke-miterlimit:4;stroke-dasharray:none;stroke-dashoffset:0;stroke-opacity:1;color-rendering:auto;image-rendering:auto;shape-rendering:auto;text-rendering:auto;enable-background:accumulate"
       d="m 235.578,658.32265 c -0.9827,0 -1.77344,0.1477 -1.77344,0.33203 l 0,0.50195 c -0.29384,0.0542 -0.48046,0.11204 -0.48046,0.17578 l 0,23.7832 c 0,0.0637 0.18662,0.12156 0.48046,0.17578 l 0,0.5 c 0,0.18433 0.79074,0.33399 1.77344,0.33399 l 69.38086,0 c 0.98271,0 1.77344,-0.14966 1.77344,-0.33399 l 0,-0.24804 594.24414,0 c 2.80089,0 5.05664,-0.19113 5.05664,-0.42774 l 0,-23.7832 c 0,-0.23661 -2.25575,-0.42773 -5.05664,-0.42773 l -594.24414,0 0,-0.25 c 0,-0.18433 -0.79073,-0.33203 -1.77344,-0.33203 l -69.38086,0 z"
       id="rect4804-8-52"
       inkscape:connector-curvature="0" />
    <text
       xml:space="preserve"
       style="font-style:normal;font-weight:normal;line-height:0%;font-family:sans-serif;letter-spacing:0px;word-spacing:0px;fill:none;fill-opacity:1;stroke:#ff0000;stroke-width:1px;stroke-linecap:butt;stroke-linejoin:miter;stroke-opacity:1"
       x="237.14452"
       y="136.75125"
       id="text6631"><tspan
         sodipodi:role="line"
         id="tspan6633"
         x="237.14452"
         y="136.75125"
         style="font-style:normal;font-variant:normal;font-weight:normal;font-stretch:normal;font-size:15px;line-height:125%;font-family:'Eras Bold ITC';-inkscape-font-specification:'Eras Bold ITC';fill:none;stroke:#ff0000">Eraser End</tspan></text>
    <text
       xml:space="preserve"
       style="font-style:normal;font-variant:normal;font-weight:normal;font-stretch:normal;font-size:22.67359543px;line-height:1.25;font-family:'Magnolia Sky';-inkscape-font-specification:'Magnolia Sky';letter-spacing:0px;word-spacing:0px;fill:#000000;fill-opacity:1;stroke:none;stroke-width:0.56683993"
       x="352.29831"
       y="538.76038"
       id="text97-2"><tspan
         sodipodi:role="line"
         id="tspan95-1"
         x="352.29831"
         y="538.76038"
         style="font-style:normal;font-variant:normal;font-weight:normal;font-stretch:normal;font-family:'Comic Sans MS';-inkscape-font-specification:'Comic Sans MS';stroke-width:0.56683993">Bye</tspan></text>
    <text
       xml:space="preserve"
       style="font-style:normal;font-variant:normal;font-weight:normal;font-stretch:normal;font-size:22.67359543px;line-height:1.25;font-family:'Magnolia Sky';-inkscape-font-specification:'Magnolia Sky';letter-spacing:0px;word-spacing:0px;fill:#000000;fill-opacity:1;stroke:none;stroke-width:0.56683993"
       x="352.29828"
       y="492.17581"
       id="text97-2-0"><tspan
         sodipodi:role="line"
         id="tspan95-1-5"
         x="352.29828"
         y="492.17581"
         style="font-style:normal;font-variant:normal;font-weight:normal;font-stretch:normal;font-family:'Comic Sans MS';-inkscape-font-specification:'Comic Sans MS';stroke-width:0.56683993">Hi</tspan></text>
    <text
       xml:space="preserve"
       style="font-style:normal;font-variant:normal;font-weight:normal;font-stretch:normal;font-size:22.67359543px;line-height:1.25;font-family:'Magnolia Sky';-inkscape-font-specification:'Magnolia Sky';letter-spacing:0px;word-spacing:0px;fill:#000000;fill-opacity:1;stroke:none;stroke-width:0.56683993"
       x="352.29831"
       y="631.99524"
       id="text97-2-2"><tspan
         sodipodi:role="line"
         id="tspan95-1-1"
         x="352.29831"
         y="631.99524"
         style="font-style:normal;font-variant:normal;font-weight:normal;font-stretch:normal;font-family:'Comic Sans MS';-inkscape-font-specification:'Comic Sans MS';stroke-width:0.56683993">Beans</tspan></text>
    <text
       xml:space="preserve"
       style="font-style:normal;font-variant:normal;font-weight:normal;font-stretch:normal;font-size:22.67359543px;line-height:1.25;font-family:'Magnolia Sky';-inkscape-font-specification:'Magnolia Sky';letter-spacing:0px;word-spacing:0px;fill:#000000;fill-opacity:1;stroke:none;stroke-width:0.56683987"
       x="352.29831"
       y="585.41046"
       id="text97-2-0-3"><tspan
         sodipodi:role="line"
         id="tspan95-1-5-4"
         x="352.29831"
         y="585.41046"
         style="font-style:normal;font-variant:normal;font-weight:normal;font-stretch:normal;font-family:'Comic Sans MS';-inkscape-font-specification:'Comic Sans MS';stroke-width:0.56683987">BRINTON ROCKS</tspan></text>
    <text
       xml:space="preserve"
       style="font-style:normal;font-variant:normal;font-weight:normal;font-stretch:normal;font-size:22.67359543px;line-height:1.25;font-family:'Magnolia Sky';-inkscape-font-specification:'Magnolia Sky';letter-spacing:0px;word-spacing:0px;fill:#000000;fill-opacity:1;stroke:none;stroke-width:0.56683987"
       x="352.29831"
       y="678.64185"
       id="text97-2-0-1"><tspan
         sodipodi:role="line"
         id="tspan95-1-5-1"
         x="352.29831"
         y="678.64185"
         style="font-style:normal;font-variant:normal;font-weight:normal;font-stretch:normal;font-family:'Comic Sans MS';-inkscape-font-specification:'Comic Sans MS';stroke-width:0.56683987">Bears</tspan></text>
    <text
       xml:space="preserve"
       style="font-style:normal;font-variant:normal;font-weight:normal;font-stretch:normal;font-size:37.5px;line-height:1.25;font-family:'Magnolia Sky';-inkscape-font-specification:'Magnolia Sky';letter-spacing:0px;word-spacing:0px;fill:#000000;fill-opacity:1;stroke:none;stroke-width:0.9375"
       x="368.99017"
       y="616.96069"
       id="text181"><tspan
         sodipodi:role="line"
         id="tspan179"
         x="368.99017"
         y="649.77319"
         style="stroke-width:0.9375"></tspan></text>
  </g>
</svg>
